<svg xmlns="http://www.w3.org/2000/svg" width="106" height="30" viewBox="0 0 106 30">
  <g id="Group_229074" data-name="Group 229074" transform="translate(-6208 -399)">
    <rect id="Rectangle_3227" data-name="Rectangle 3227" width="106" height="30" transform="translate(6208 399)" fill="none"/>
    <g id="clutchco" transform="translate(6215.964 401.185)">
      <g id="Group_229073" data-name="Group 229073" transform="translate(23.436)">
        <path id="Path_28392" data-name="Path 28392" d="M22.861,0h4.1V25.629h-4.1ZM41.314,17.453a3.973,3.973,0,0,1-4.279,4.235c-2.451,0-2.9-2.294-2.9-3.678V8.2h-4.1V17.99a7.985,7.985,0,0,0,2.1,5.772A6.846,6.846,0,0,0,37,25.589a7.04,7.04,0,0,0,4.31-1.359v1.4h4.1V8.2h-4.1Zm12.3-15.4h-4.1V8.2H46.44v4.1h3.075V25.629h4.1V12.3h3.075V8.2H53.616ZM69.605,20.418a4.98,4.98,0,0,1-3.366,1.248,4.806,4.806,0,0,1-4.946-4.97,4.7,4.7,0,0,1,4.946-4.882,5.1,5.1,0,0,1,3.388,1.226l.622.535,2.765-2.764-.692-.624a9.048,9.048,0,0,0-6.084-2.293,8.53,8.53,0,0,0-8.848,8.781,8.685,8.685,0,0,0,8.848,8.891,8.952,8.952,0,0,0,6.129-2.317l.668-.624-2.808-2.762Zm18.046-10.7a6.382,6.382,0,0,0-8.406-.469V0h-4.1V25.629h4.1v-9.6c0-3.922,2.786-4.234,3.767-4.234,2.451,0,2.383,2.3,2.383,3.677V25.629h4.1V15.493c0-2.43-.507-4.435-1.845-5.773" transform="translate(-22.861)" fill="#ffffff"/>
      </g>
      <path id="Path_28393" data-name="Path 28393" d="M65.116,13.438A2.965,2.965,0,1,1,62.151,16.4a2.965,2.965,0,0,1,2.965-2.965" transform="translate(1.564 0.338)" fill="#ff3d2e"/>
      <path id="Path_28394" data-name="Path 28394" d="M17.7,19.174a8.187,8.187,0,0,1-5.906,2.474c-4.568,0-7.89-3.588-7.89-8.513C3.9,8.188,7.221,4.6,11.789,4.6a8.281,8.281,0,0,1,5.884,2.451l.623.624,2.741-2.741-.6-.624A11.934,11.934,0,0,0,11.789.7C5.059.7,0,6.048,0,13.157,0,20.244,5.082,25.57,11.789,25.57a11.968,11.968,0,0,0,8.67-3.632l.6-.624-2.719-2.785Z" transform="translate(0 0.018)" fill="#ffffff"/>
    </g>
  </g>
</svg>
