<svg xmlns="http://www.w3.org/2000/svg" xmlns:xlink="http://www.w3.org/1999/xlink" width="118" height="25" viewBox="0 0 118 25">
  <defs>
    <clipPath id="clip-path">
      <rect id="Rectangle_1845" data-name="Rectangle 1845" width="19" height="25" transform="translate(0 0)" fill="none"/>
    </clipPath>
    <clipPath id="clip-path-2">
      <rect id="Rectangle_1846" data-name="Rectangle 1846" width="95" height="18" fill="none"/>
    </clipPath>
  </defs>
  <g id="Glassdoor" transform="translate(-3646.069 -6397.825)">
    <g id="Mask_Group_358" data-name="Mask Group 358" transform="translate(3646.069 6397.825)" clip-path="url(#clip-path)">
      <path id="glassdoor-logo_1_" data-name="glassdoor-logo (1)" d="M54.084,34.076a.178.178,0,0,0-.093-.147,1.369,1.369,0,0,0-.661-.106,1.989,1.989,0,0,0-1.855,1.05v-.8a.13.13,0,0,0-.135-.122h-1.22a.127.127,0,0,0-.091.035.117.117,0,0,0-.036.087v5.407a.13.13,0,0,0,.135.122h1.287a.128.128,0,0,0,.127-.122V37.048a1.6,1.6,0,0,1,1.8-1.62,2.075,2.075,0,0,1,.593.081.123.123,0,0,0,.161-.122V34.068Zm-8.2-.261a2.968,2.968,0,1,1-3.125,2.964,2.945,2.945,0,0,1,3.125-2.964Zm0,4.462a1.5,1.5,0,1,0-1.55-1.5A1.471,1.471,0,0,0,45.887,38.278Zm-7.131-4.463a2.969,2.969,0,1,1,.008,5.928,2.969,2.969,0,1,1-.008-5.928Zm0,4.463a1.5,1.5,0,1,0-1.541-1.5A1.448,1.448,0,0,0,38.756,38.278ZM34.531,31.7a.123.123,0,0,1,.127.122v7.662a.117.117,0,0,1-.036.087.127.127,0,0,1-.091.035H33.243a.128.128,0,0,1-.127-.122v-.668a2.312,2.312,0,0,1-1.939.936,2.681,2.681,0,0,1-2.659-2.972,2.677,2.677,0,0,1,2.634-2.972,2.346,2.346,0,0,1,1.964.961V31.82a.137.137,0,0,1,.136-.13Zm-2.9,6.6A1.515,1.515,0,1,0,30.1,36.787,1.459,1.459,0,0,0,31.634,38.3Zm-3.964-.4c0,1.287-.965,1.84-2.523,1.84a3.423,3.423,0,0,1-2.523-.855.12.12,0,0,1,0-.163l.736-.936a.127.127,0,0,1,.195-.008,2.423,2.423,0,0,0,1.744.627c.432,0,.788-.114.788-.432s-.322-.375-1.3-.578c-.864-.171-1.939-.554-1.939-1.783,0-1.148.94-1.8,2.464-1.8a3.177,3.177,0,0,1,2.236.757.122.122,0,0,1,.009.171l-.7.888a.137.137,0,0,1-.186.024,2.327,2.327,0,0,0-1.482-.48c-.474,0-.745.146-.745.391,0,.285.322.35,1.355.562s1.88.586,1.88,1.775Zm-5.928,0c0,1.287-.965,1.84-2.523,1.84a3.445,3.445,0,0,1-2.532-.855.143.143,0,0,1,0-.163l.745-.928a.126.126,0,0,1,.195-.008,2.424,2.424,0,0,0,1.744.627c.432,0,.788-.114.788-.431s-.322-.375-1.3-.578c-.864-.171-1.939-.554-1.939-1.783,0-1.148.932-1.8,2.464-1.8a3.177,3.177,0,0,1,2.236.757.122.122,0,0,1,.009.171l-.7.88a.138.138,0,0,1-.186.024,2.326,2.326,0,0,0-1.482-.48c-.474,0-.745.146-.745.391,0,.285.322.35,1.355.562,1.016.212,1.871.586,1.88,1.775Zm-8.7-4.072c1.7,0,2.558.725,2.558,2.3V39.5a.13.13,0,0,1-.136.122H14.181a.127.127,0,0,1-.09-.035.117.117,0,0,1-.036-.087v-.643a2.052,2.052,0,0,1-1.8.88,1.791,1.791,0,0,1-1.973-1.759A1.832,1.832,0,0,1,12.157,36.2l1.6-.138c.212-.024.3-.089.3-.228v-.09c0-.326-.322-.562-1.016-.562a1.534,1.534,0,0,0-1.4.611.121.121,0,0,1-.178.033l-.931-.652a.113.113,0,0,1-.034-.155,2.659,2.659,0,0,1,2.549-1.181Zm1.008,3.493V37.1l-1.44.171c-.474.065-.72.3-.72.619,0,.366.3.6.83.6a1.218,1.218,0,0,0,1.33-1.164Zm-4.819-5.5v7.662a.129.129,0,0,1-.127.13h-1.3a.137.137,0,0,1-.136-.13V31.82A.128.128,0,0,1,7.8,31.7H9.1A.13.13,0,0,1,9.235,31.82ZM6.271,33.945a.137.137,0,0,1,.136.13V39.23c0,1.458-.72,2.777-3.176,2.777a3.694,3.694,0,0,1-2.5-.806c-.042-.033-.051-.106.026-.228l.576-.945a.115.115,0,0,1,.087-.059.118.118,0,0,1,.1.034,2.42,2.42,0,0,0,1.651.611c1.3,0,1.711-.643,1.711-1.458V38.8a2.224,2.224,0,0,1-1.871.863A2.647,2.647,0,0,1,.267,36.755a2.692,2.692,0,0,1,2.7-2.94,2.224,2.224,0,0,1,1.905.928v-.659a.137.137,0,0,1,.136-.13ZM3.383,38.294a1.515,1.515,0,1,0,0-3.029,1.515,1.515,0,1,0,0,3.029M32.557,22.139H18.2a3.523,3.523,0,0,0,3.591,3.469H32.557a3.526,3.526,0,0,0,3.582-3.469V7.872a.135.135,0,0,0-.127-.13H32.684a.129.129,0,0,0-.127.13Zm0-20.846A3.528,3.528,0,0,1,36.139,4.77H21.785V19.036a.137.137,0,0,1-.135.131H18.322a.137.137,0,0,1-.136-.131V4.77a3.53,3.53,0,0,1,3.591-3.477Z" transform="translate(-17.582 -1.07)" fill="#0dab40" fill-rule="evenodd"/>
    </g>
    <g id="Mask_Group_359" data-name="Mask Group 359" transform="translate(3669.069 6401.324)" clip-path="url(#clip-path-2)">
      <path id="glassdoor-logo_1_2" data-name="glassdoor-logo (1)" d="M93.637,60.445a.323.323,0,0,0-.161-.265,2.3,2.3,0,0,0-1.146-.191,3.429,3.429,0,0,0-3.218,1.9v-1.44a.229.229,0,0,0-.235-.22H86.761a.216.216,0,0,0-.22.22V70.2a.229.229,0,0,0,.235.22h2.234a.226.226,0,0,0,.22-.22V65.808a2.812,2.812,0,0,1,3.114-2.924,3.472,3.472,0,0,1,1.029.147.215.215,0,0,0,.279-.22V60.43Zm-14.222-.47a5.348,5.348,0,1,1-5.422,5.348,5.2,5.2,0,0,1,5.422-5.348Zm0,8.052a2.711,2.711,0,1,0-2.689-2.7A2.6,2.6,0,0,0,79.415,68.026ZM67.044,59.974a5.349,5.349,0,1,1-5.451,5.348,5.189,5.189,0,0,1,5.451-5.348Zm0,8.052a2.711,2.711,0,1,0-2.674-2.7,2.561,2.561,0,0,0,2.674,2.7ZM59.713,56.154a.217.217,0,0,1,.22.221V70.2a.216.216,0,0,1-.22.22H57.479a.226.226,0,0,1-.22-.22V69a3.959,3.959,0,0,1-3.364,1.689c-2.513,0-4.614-1.91-4.614-5.363s2.1-5.362,4.57-5.362a4.021,4.021,0,0,1,3.408,1.734V56.375a.242.242,0,0,1,.236-.235ZM54.688,68.07a2.734,2.734,0,1,0-2.659-2.733,2.581,2.581,0,0,0,2.659,2.733Zm-6.877-.72c0,2.322-1.675,3.32-4.378,3.32a5.8,5.8,0,0,1-4.378-1.542.223.223,0,0,1,0-.294l1.278-1.69a.215.215,0,0,1,.338-.015A4.111,4.111,0,0,0,43.7,68.261c.75,0,1.366-.206,1.366-.779s-.558-.676-2.263-1.043c-1.5-.309-3.365-1-3.365-3.218,0-2.071,1.631-3.247,4.276-3.247a5.383,5.383,0,0,1,3.879,1.366.227.227,0,0,1,.015.309l-1.219,1.6a.232.232,0,0,1-.323.044,3.936,3.936,0,0,0-2.571-.867c-.823,0-1.293.264-1.293.705,0,.514.558.631,2.351,1.014,1.778.382,3.261,1.058,3.261,3.2Zm-10.285,0c0,2.322-1.675,3.32-4.378,3.32a5.839,5.839,0,0,1-4.393-1.542.267.267,0,0,1,0-.294l1.293-1.675a.214.214,0,0,1,.338-.015,4.114,4.114,0,0,0,3.027,1.131c.75,0,1.367-.205,1.367-.778,0-.558-.558-.676-2.263-1.043-1.5-.309-3.365-1-3.365-3.218,0-2.072,1.616-3.247,4.276-3.247a5.383,5.383,0,0,1,3.879,1.366.226.226,0,0,1,.015.308L36.1,63.251a.234.234,0,0,1-.323.044,3.934,3.934,0,0,0-2.571-.867c-.823,0-1.293.264-1.293.705,0,.514.558.631,2.351,1.014,1.763.382,3.246,1.058,3.261,3.2ZM22.438,60c2.953,0,4.437,1.308,4.437,4.143v6.083a.23.23,0,0,1-.235.221H24.406a.216.216,0,0,1-.22-.221V69.069a3.522,3.522,0,0,1-3.115,1.587,3.157,3.157,0,0,1-3.423-3.174,3.239,3.239,0,0,1,3.247-3.2l2.777-.25c.367-.044.515-.161.515-.411v-.162c0-.588-.558-1.014-1.763-1.014A2.62,2.62,0,0,0,20,63.544a.205.205,0,0,1-.309.059l-1.616-1.176a.209.209,0,0,1-.059-.279c.7-1.425,2.306-2.13,4.422-2.13Zm1.749,6.3V65.9l-2.5.309c-.823.117-1.249.543-1.249,1.116,0,.661.514,1.087,1.439,1.087a2.146,2.146,0,0,0,2.307-2.1Zm-8.36-9.932V70.2a.229.229,0,0,1-.22.235H13.358a.242.242,0,0,1-.235-.235V56.375a.226.226,0,0,1,.221-.22h2.248A.229.229,0,0,1,15.826,56.375Zm-5.143,3.835a.242.242,0,0,1,.236.235v9.3c0,2.63-1.249,5.01-5.51,5.01A6.251,6.251,0,0,1,1.075,73.3c-.073-.059-.088-.191.044-.411l1-1.7a.2.2,0,0,1,.324-.044,4.106,4.106,0,0,0,2.865,1.1c2.263,0,2.968-1.161,2.968-2.63v-.646a3.8,3.8,0,0,1-3.247,1.557c-2.7,0-4.761-1.851-4.761-5.245s2.16-5.3,4.687-5.3A3.814,3.814,0,0,1,8.26,61.649v-1.19a.242.242,0,0,1,.235-.235Zm-5.01,7.846a2.735,2.735,0,0,0,0-5.466,2.734,2.734,0,0,0,0,5.466m50.616-29.15h-24.9a6.23,6.23,0,0,0,6.229,6.259H56.289A6.236,6.236,0,0,0,62.5,38.906V13.164a.239.239,0,0,0-.22-.235H56.509a.229.229,0,0,0-.22.235Zm0-37.613A6.24,6.24,0,0,1,62.5,7.567H37.6V33.308a.242.242,0,0,1-.235.236H31.591a.242.242,0,0,1-.235-.236V7.567a6.243,6.243,0,0,1,6.229-6.274Z" transform="translate(1.535 -56.414)" fill="#0dab40" fill-rule="evenodd"/>
    </g>
  </g>
</svg>
