<svg xmlns="http://www.w3.org/2000/svg" width="162" height="24" viewBox="0 0 162 24">
  <g id="Group_229075" data-name="Group 229075" transform="translate(-6335 -396)">
    <rect id="Rectangle_3228" data-name="Rectangle 3228" width="162" height="24" transform="translate(6335 396)" fill="none"/>
    <g id="advertising-companies" transform="translate(6291.032 372.19)">
      <path id="Path_28395" data-name="Path 28395" d="M36.9,14.66H22.22c-5.32,1.3-5.42,5.82-5.42,5.82V35.755h5.645V21.83a1.41,1.41,0,0,1,1.13-1.4H36.9ZM25.745,22.7s-1.1-.11-1.1.885V28.01H31.9v1.32a.63.63,0,0,1-.655.665h-6.6v5.75h7.91A5.81,5.81,0,0,0,37.39,30V22.7Z" transform="translate(28.59 10.602)" fill="#4385f4"/>
      <path id="Path_28396" data-name="Path 28396" d="M90,33c-.46.32-.79.55-1,.69A19.57,19.57,0,0,1,86.54,35a7.72,7.72,0,0,1-3,.69,10.47,10.47,0,0,1-7.5-2.84,9.46,9.46,0,0,1-3-7.17,10.51,10.51,0,0,1,2.71-7.22,8.44,8.44,0,0,1,6.59-3A10.77,10.77,0,0,1,85.8,16a9.3,9.3,0,0,1,3.8,2.24l-1.73,2a6.58,6.58,0,0,0-2.8-1.61,9.66,9.66,0,0,0-2.77-.38,5.7,5.7,0,0,0-4.56,2.24,8.28,8.28,0,0,0-1.83,5.37A6.79,6.79,0,0,0,78,30.91,7.29,7.29,0,0,0,83.31,33a5.26,5.26,0,0,0,2.75-.86l1.2-.91V26.9H81.44l.84-2.67H90Zm17.56-5.22a7.55,7.55,0,0,1-2.15,5.37,7.17,7.17,0,0,1-10.45,0,7.36,7.36,0,0,1-2.19-5.39,7.85,7.85,0,0,1,2.09-5.43,6.64,6.64,0,0,1,5.12-2.3,7.18,7.18,0,0,1,5.45,2.22,7.55,7.55,0,0,1,2.13,5.53Zm-2.73,0a4.94,4.94,0,0,0-1.37-3.55,4.47,4.47,0,0,0-3.4-1.46,4.2,4.2,0,0,0-3.25,1.5,5.07,5.07,0,0,0-1.33,3.45,4.92,4.92,0,0,0,1.35,3.47,4.43,4.43,0,0,0,3.37,1.46,4.33,4.33,0,0,0,3.24-1.44,4.73,4.73,0,0,0,1.39-3.39Zm20,0a7.55,7.55,0,0,1-2.15,5.37,7.17,7.17,0,0,1-10.45,0,7.36,7.36,0,0,1-2.19-5.39,7.85,7.85,0,0,1,2.09-5.43,6.64,6.64,0,0,1,5.12-2.3,7.18,7.18,0,0,1,5.45,2.22,7.55,7.55,0,0,1,2.18,5.53Zm-2.73,0a4.94,4.94,0,0,0-1.37-3.55,4.47,4.47,0,0,0-3.4-1.46,4.2,4.2,0,0,0-3.25,1.5,5.07,5.07,0,0,0-1.33,3.45,4.92,4.92,0,0,0,1.35,3.47,4.43,4.43,0,0,0,3.37,1.46,4.33,4.33,0,0,0,3.24-1.44,4.73,4.73,0,0,0,1.44-3.39ZM140.91,35l-2.51.39V32.92l-.54.63a6.45,6.45,0,0,1-1.59,1.12,6.27,6.27,0,0,1-2.73.61,6.51,6.51,0,0,1-5-2.21,7.6,7.6,0,0,1-2-5.29,7.93,7.93,0,0,1,2-5.43,6.33,6.33,0,0,1,4.92-2.25,6.87,6.87,0,0,1,2.91.56,5,5,0,0,1,1.49,1.06l.42.59V15.79L141,15.4V35.01Zm-2.35-7a5.08,5.08,0,0,0-1.46-3.7,4.45,4.45,0,0,0-3.32-1.52,4.27,4.27,0,0,0-3.36,1.44,5,5,0,0,0-1.22,3.36,5.41,5.41,0,0,0,1.26,3.68,4,4,0,0,0,3.18,1.44A4.86,4.86,0,0,0,137,31.33,4.38,4.38,0,0,0,138.56,28ZM155,18.51h-7.46v5.2h5.79v2.67h-5.79V35l-2.91.44V15.81h9.79ZM161,17l-1.79,2.32L157.47,17l1.81-2.29Zm-.53,18-2.67.37V20.87l2.67-.42Zm12-14.71-1.25,3a3.62,3.62,0,0,0-.5,0,5.12,5.12,0,0,0-.78.06,3.06,3.06,0,0,0-.83.29,3.33,3.33,0,0,0-1.46,1.61,6.73,6.73,0,0,0-.69,3V35l-2.67.44V20.87l2.47-.46v3c.32-.53.65-1.05,1-1.59a4,4,0,0,1,1.6-1.17,6.94,6.94,0,0,1,1.77-.31,7.31,7.31,0,0,1,1.37-.07ZM192.35,35l-2.67.39v-10a2.8,2.8,0,0,0-.6-2,2.32,2.32,0,0,0-1.77-.63A2.35,2.35,0,0,0,185.18,24a3.38,3.38,0,0,0-.5,1.71V35l-2.66.5v-10a3.08,3.08,0,0,0-.58-2,2,2,0,0,0-1.59-.69h-.26a2.12,2.12,0,0,0-2,1.21,5,5,0,0,0-.48,2.32V35l-2.77.5V20.87l2.49-.44v1.86a5.819,5.819,0,0,1,.82-1.05,3.46,3.46,0,0,1,2.49-1,4.3,4.3,0,0,1,2.36.52,4.45,4.45,0,0,1,1.34,1.72,4.34,4.34,0,0,1,3.92-2.24,4.23,4.23,0,0,1,3.64,1.59,6.36,6.36,0,0,1,1,3.86Zm12.18-4.41a4.34,4.34,0,0,1-1.37,3.3,4.79,4.79,0,0,1-3.47,1.3,5.49,5.49,0,0,1-2.84-.76,5.23,5.23,0,0,1-1.91-1.73l1.87-1.7a4,4,0,0,0,.38.5,3.34,3.34,0,0,0,2.5,1.11,2.25,2.25,0,0,0,1.6-.55,1.87,1.87,0,0,0,.57-1.5c0-.73-.45-1.23-1.37-1.5-1.81-.57-2.79-.88-2.93-.94a5.09,5.09,0,0,1-1.81-1.43,4.11,4.11,0,0,1-.63-2.42,4.09,4.09,0,0,1,1.35-3.13,4.51,4.51,0,0,1,3.2-1.23,5.39,5.39,0,0,1,2.61.64A4.35,4.35,0,0,1,204,22l-1.59,1.77a7.369,7.369,0,0,0-.77-.67,3.2,3.2,0,0,0-1.84-.69,2.36,2.36,0,0,0-1.37.38,1.61,1.61,0,0,0-.64,1.38,1.42,1.42,0,0,0,.62,1.29,8.5,8.5,0,0,0,2.31.75,5.5,5.5,0,0,1,2.77,1.51,3.9,3.9,0,0,1,1.05,2.88Z" transform="translate(0 10.552)" fill="#4385f4"/>
    </g>
  </g>
</svg>
