<svg xmlns="http://www.w3.org/2000/svg" width="22.296" height="20.703" viewBox="0 0 22.296 20.703">
  <path id="star" d="M23.7,10.541H16.379L14.154,3.9a.806.806,0,0,0-1.513,0l-2.225,6.639H3.046a.8.8,0,0,0-.8.8.585.585,0,0,0,.015.134.765.765,0,0,0,.333.562l6.017,4.24L6.306,22.988a.8.8,0,0,0,.274.9.77.77,0,0,0,.448.194.976.976,0,0,0,.5-.179L13.4,19.714,19.27,23.9a.933.933,0,0,0,.5.179.715.715,0,0,0,.443-.194.789.789,0,0,0,.274-.9l-2.309-6.714,5.967-4.28.144-.124a.835.835,0,0,0,.259-.533A.843.843,0,0,0,23.7,10.541Z" transform="translate(-2.25 -3.375)" fill="#f58220"/>
</svg>
